# xmcd
#
# Track frame offsets:
# 182
# 15887
# 30027
# 40285
# 54040
# 66560
# 78980
# 90297
# 104687
# 117095
#
# Disc length: 1750 seconds
#
#
# Revision: 1
# Processed by: cddbd v1.5.1PL0 Copyright (c) Steve Scherf et al.
# Submitted via: FreeRIP 2.93 
#
DISCID=6706d40a
DTITLE=Tom Astor - Ich bin wieder auf der Autobahn
DYEAR=1900
DGENRE=
TTITLE0=Und in Hamburg sitzt Gabi
TTITLE1=Viel erlebt und viel versäumt
TTITLE2=Danke Brummi
TTITLE3=Der Truck das ist sein Leben
TTITLE4=Radwechsel
TTITLE5=Dieser Hintern hat das Zeug zu einem Weltstar
TTITLE6=Ist das ein Leben -so hart so schön
TTITLE7=Ich bin ein Gefangener  der Autobahn
TTITLE8=Verdammte Radarfalle
TTITLE9=Ich hör so gerne Cajun Music
EXTD=
EXTT0=
EXTT1=
EXTT2=Duett mit U. Totzki
EXTT3=
EXTT4=
EXTT5=
EXTT6=
EXTT7=
EXTT8=
EXTT9=
PLAYORDER=
